<svg width="20" height="24" viewBox="0 0 20 24" fill="none" xmlns="http://www.w3.org/2000/svg">
<path d="M14.0265 7.70332C15.5702 8.81041 17.4607 9.46185 19.5025 9.46185V6.35778C18.3628 6.11414 17.3538 5.5164 16.5951 4.68499C15.2966 3.87179 14.361 2.5302 14.0867 0.959961H11.2241V16.7106C11.2176 18.5468 9.73274 20.0336 7.90162 20.0336C6.82257 20.0336 5.86394 19.5174 5.25682 18.7178C4.17269 18.1687 3.42923 17.0413 3.42923 15.7394C3.42923 13.8981 4.91655 12.4052 6.75161 12.4052C7.1032 12.4052 7.44208 12.4602 7.75995 12.5614V9.42338C3.81921 9.50509 0.649902 12.7365 0.649902 16.7107C0.649902 18.6946 1.43913 20.4931 2.72006 21.8071C3.87565 22.5858 5.26675 23.04 6.76342 23.04C10.7747 23.04 14.0265 19.7765 14.0265 15.7509V7.70332H14.0265Z" fill="#F5F5F5"/>
</svg>
